<svg width="580" height="580" viewBox="0 0 580 580" fill="none" xmlns="http://www.w3.org/2000/svg">
<rect x="31" y="31" width="519" height="519" rx="30" fill="white"/>
<path d="M165.49 477C149.327 477 137.11 472.298 128.841 462.893C120.947 453.111 117 441.449 117 427.906C117 413.987 121.135 402.325 129.404 392.92C138.05 383.515 150.079 378.812 165.49 378.812C180.902 378.812 193.119 382.762 202.14 390.663C211.161 398.563 215.672 410.413 215.672 426.213C215.672 442.014 211.349 454.428 202.704 463.457C194.434 472.486 182.03 477 165.49 477Z" fill="black"/>
<path d="M274.677 390.663V212.909H243.666V202.752H274.677V129.958L379.552 104V202.752H452.851V212.909H379.552V403.077C379.552 420.758 381.243 433.737 384.626 442.014C388.385 450.29 395.903 454.428 407.18 454.428C418.457 454.428 428.23 448.785 436.499 437.499C445.145 426.213 450.783 410.789 453.415 391.227L463 392.356C459.993 418.313 451.723 439.004 438.191 454.428C424.659 469.476 402.293 477 371.094 477C339.895 477 316.025 470.793 299.486 458.378C282.947 445.964 274.677 423.392 274.677 390.663Z" fill="black"/>
</svg>
